<svg width="16" height="16" viewBox="0 0 16 16" fill="none" xmlns="http://www.w3.org/2000/svg">
<path d="M2.16667 15.5C1.70833 15.5 1.3125 15.3403 0.979167 15.0208C0.659722 14.6875 0.5 14.2917 0.5 13.8333V2.16667C0.5 1.70833 0.659722 1.31945 0.979167 1C1.3125 0.666667 1.70833 0.5 2.16667 0.5H13.8333C14.2917 0.5 14.6806 0.666667 15 1C15.3333 1.31945 15.5 1.70833 15.5 2.16667V13.8333C15.5 14.2917 15.3333 14.6875 15 15.0208C14.6806 15.3403 14.2917 15.5 13.8333 15.5H2.16667ZM8 11.3333C8.52778 11.3333 9.00695 11.1806 9.4375 10.875C9.86806 10.5694 10.1667 10.1667 10.3333 9.66667H13.8333V2.16667H2.16667V9.66667H5.66667C5.83333 10.1667 6.13195 10.5694 6.5625 10.875C6.99306 11.1806 7.47222 11.3333 8 11.3333Z" fill="#1D1B20"/>
</svg>
