<svg width="17" height="20" viewBox="0 0 17 20" fill="none" xmlns="http://www.w3.org/2000/svg">
<path d="M12 3.33333H13.75C14.2141 3.33333 14.6592 3.50893 14.9874 3.82149C15.3156 4.13405 15.5 4.55797 15.5 5V16.6667C15.5 17.1087 15.3156 17.5326 14.9874 17.8452C14.6592 18.1577 14.2141 18.3333 13.75 18.3333H3.25C2.78587 18.3333 2.34075 18.1577 2.01256 17.8452C1.68437 17.5326 1.5 17.1087 1.5 16.6667V5C1.5 4.55797 1.68437 4.13405 2.01256 3.82149C2.34075 3.50893 2.78587 3.33333 3.25 3.33333H5M5.875 1.66666H11.125C11.6082 1.66666 12 2.03976 12 2.5V4.16666C12 4.6269 11.6082 5 11.125 5H5.875C5.39175 5 5 4.6269 5 4.16666V2.5C5 2.03976 5.39175 1.66666 5.875 1.66666Z" stroke="#1E1E1E" stroke-width="2" stroke-linecap="round" stroke-linejoin="round"/>
</svg>
