<svg width="20" height="16" viewBox="0 0 20 16" fill="none" xmlns="http://www.w3.org/2000/svg">
<path d="M18.3332 8H13.3332L11.6665 10.5H8.33317L6.6665 8H1.6665M18.3332 8V13C18.3332 13.442 18.1576 13.866 17.845 14.1785C17.5325 14.4911 17.1085 14.6667 16.6665 14.6667H3.33317C2.89114 14.6667 2.46722 14.4911 2.15466 14.1785C1.8421 13.866 1.6665 13.442 1.6665 13V8M18.3332 8L15.4582 2.25834C15.3202 1.98066 15.1075 1.74698 14.844 1.58357C14.5805 1.42016 14.2766 1.3335 13.9665 1.33334H6.03317C5.7231 1.3335 5.41922 1.42016 5.15571 1.58357C4.89219 1.74698 4.67949 1.98066 4.5415 2.25834L1.6665 8" stroke="#1E1E1E" stroke-width="2" stroke-linecap="round" stroke-linejoin="round"/>
</svg>
