<svg width="1251" height="534" viewBox="0 0 1251 534" fill="none" xmlns="http://www.w3.org/2000/svg">
<path d="M789.126 14.8123L859.614 30.4945L864.6 31.6041L866.624 36.2938C882.245 72.4946 901.871 118.963 922.457 168.135C921.645 158.122 922.71 147.795 927.911 139.391C944.837 112.048 969.354 96.06 1002.74 93.041C1019.92 91.4883 1041.9 96.0746 1063.78 103.469C1085.93 110.954 1109.1 121.705 1129.05 133.49C1149.46 145.553 1170.62 164.216 1186.4 179.487C1194.36 187.188 1201.08 194.158 1205.82 199.207C1208.19 201.733 1210.07 203.784 1211.36 205.209C1212 205.922 1212.5 206.479 1212.85 206.862C1213.02 207.053 1213.15 207.202 1213.24 207.304C1213.28 207.355 1213.32 207.395 1213.34 207.423C1213.36 207.437 1213.37 207.448 1213.37 207.456C1213.38 207.46 1213.38 207.464 1213.38 207.466C1213.38 207.467 1213.38 207.468 1213.38 207.469C1213.39 207.47 1213.39 207.471 1205.88 214.076L1213.39 207.471L1228.25 224.37L1205.75 224.075L1180.07 223.739C1181.27 224.177 1182.48 224.643 1183.7 225.137C1205.33 233.96 1216.81 250.574 1223.04 267.258C1229.14 283.591 1230.47 300.772 1231.56 311.472C1232.94 324.989 1228.54 342.689 1221.84 358.549C1215.08 374.541 1205.1 390.724 1193.53 400.756C1183.44 409.498 1169.31 421.137 1154.14 430.366C1139.34 439.366 1121.77 447.199 1105.2 445.953C1076.92 443.826 1045.71 431.13 1030.33 408.821C1026.5 403.271 1021.71 393.631 1016.87 383.061C1011.93 372.247 1006.6 359.691 1001.72 347.806C996.828 335.907 992.351 324.612 989.098 316.296C987.471 312.136 986.148 308.718 985.232 306.337C984.774 305.147 984.417 304.215 984.175 303.58C984.053 303.263 983.96 303.02 983.897 302.855C983.866 302.772 983.842 302.709 983.826 302.666C983.818 302.645 983.812 302.629 983.807 302.618C983.805 302.612 983.803 302.608 983.802 302.605C983.802 302.604 983.802 302.603 983.801 302.602C983.801 302.601 983.801 302.601 993.148 299.048L983.8 302.6L975.015 279.489L997.397 289.996C1009.56 295.705 1024.99 298.797 1040.71 300.726C1048.49 301.681 1056.14 302.33 1063.31 302.909C1070.37 303.479 1077.16 303.993 1082.83 304.669L1089.88 305.512L1091.4 312.447C1091.4 312.445 1091.4 312.442 1091.4 312.439C1091.4 312.434 1091.4 312.429 1091.4 312.425C1091.4 312.416 1091.4 312.408 1091.39 312.402L1091.4 312.436C1091.42 312.514 1091.46 312.67 1091.53 312.89C1091.66 313.332 1091.87 314.012 1092.19 314.829C1092.86 316.522 1093.85 318.49 1095.18 320.148C1096.49 321.771 1097.89 322.815 1099.43 323.319C1100.86 323.789 1103.35 324.102 1107.49 322.661C1112.52 320.912 1115.39 318.874 1116.75 317.362C1117.39 316.649 1117.58 316.184 1117.63 316.023C1117.66 315.908 1117.66 315.873 1117.64 315.787C1117.59 315.541 1117.05 313.797 1113.39 311.235C1109.81 308.725 1104.01 306.002 1095.36 303.664C1086.46 301.261 1075.67 299.196 1063.78 297.022C1052.05 294.876 1039.3 292.635 1027.06 289.923C1014.83 287.214 1002.69 283.949 992.087 279.628C981.596 275.355 971.742 269.711 964.893 261.768C962.524 259.021 960.081 255.894 957.618 252.468C965.982 272.6 974.224 292.477 982.139 311.602C1001.41 358.169 1018.77 400.289 1031.3 430.766C1037.57 446.005 1042.63 458.333 1046.13 466.852C1047.88 471.112 1049.24 474.42 1050.15 476.663C1050.61 477.784 1050.97 478.639 1051.2 479.214C1051.32 479.501 1051.41 479.718 1051.47 479.864C1051.5 479.937 1051.52 479.991 1051.53 480.028C1051.54 480.046 1051.55 480.061 1051.55 480.07C1051.55 480.074 1051.56 480.078 1051.56 480.081C1051.55 480.086 1051.28 480.199 1042.3 483.875L1051.56 480.083L1055.86 490.588L1044.9 493.533L967.835 514.232L959.804 516.39L956.218 508.888L941.096 477.254L850.573 520.772L846.659 522.654L842.612 521.078L753.142 486.246L741.545 512.169L737.965 520.169L729.565 517.671L656.142 495.824L646.736 493.025L649.357 483.569L777.317 21.9023L779.854 12.7497L789.126 14.8123ZM756.97 28.1326C734.942 99.1492 706.164 210.679 682.852 304.653C671.206 351.597 660.942 394.091 653.588 424.848C649.912 440.225 646.964 452.668 644.935 461.264C643.921 465.563 643.135 468.9 642.605 471.161C642.339 472.292 642.138 473.153 642.003 473.732C641.935 474.021 641.884 474.24 641.849 474.386C641.832 474.459 641.819 474.514 641.811 474.55C641.807 474.569 641.804 474.583 641.802 474.592C641.801 474.596 641.8 474.599 641.799 474.601L632.061 472.33L641.798 474.604L639.084 486.227L628.117 481.52L567.916 455.684L563.082 453.61L562.053 448.451L524.839 261.959L487.56 423.271L485.756 431.079L477.743 431.02L409.022 430.514L400.505 430.451L399.211 422.032L353.987 127.648L352.681 119.149L360.888 116.585L437.709 92.5841L449.806 88.8046L450.668 101.449L455.107 166.584L475.544 81.8738L476.872 76.3668L482.279 74.6748L570.959 46.9264L581.015 43.7803L583.632 53.9862L608.673 151.639L622.854 38.9654L623.819 31.3035L631.474 30.2983L746.117 15.2547L761.593 13.2243L756.97 28.1326ZM171.598 337.181C171.598 337.181 171.599 337.181 171.6 337.182C171.615 337.188 171.655 337.206 171.719 337.232C171.848 337.286 172.074 337.378 172.394 337.503C173.033 337.751 174.047 338.126 175.406 338.57C178.126 339.458 182.216 340.62 187.447 341.602C197.915 343.568 212.883 344.806 230.602 341.772C240.006 340.162 248.022 338.484 254.497 336.564C261.124 334.599 265.321 332.608 267.677 330.785C269.705 329.215 269.565 328.486 269.559 328.227C269.535 327.192 268.864 324.307 264.669 319.016C262.467 316.238 257.856 313.815 248.849 312.933C240.042 312.071 228.955 312.872 216.3 314.549C203.623 316.229 190.425 318.625 176.892 320.758C163.646 322.846 150.26 324.648 138.359 324.828C116.029 325.164 100.137 324.712 85.0152 321.297C69.764 317.853 55.9046 311.541 37.2775 301.16C13.5301 287.924 8.47387 259.589 10.6078 234.465C12.7931 208.738 22.7212 181.526 34.8546 164.308C45.4108 149.327 54.6761 134.366 69.2533 122.159C84.2105 109.634 104.192 100.301 136.155 93.7683C153.384 90.247 178.857 90.0945 202.636 90.9503C226.701 91.8164 250.17 93.7745 263.749 94.8399C277.17 95.8928 295.442 96.7114 310.464 97.2677C317.952 97.545 324.593 97.7555 329.361 97.8969C331.745 97.9676 333.659 98.0208 334.976 98.0565C335.634 98.0742 336.144 98.0873 336.487 98.0962C336.659 98.1006 336.79 98.1047 336.877 98.1069L336.999 98.1099L337.006 98.1098L345.636 98.3245L346.684 106.893L359.016 207.761L361.063 224.504L345.392 218.266L345.392 218.265C345.391 218.264 345.39 218.265 345.389 218.265C345.385 218.263 345.377 218.26 345.367 218.256C345.347 218.248 345.314 218.235 345.27 218.218C345.181 218.183 345.045 218.129 344.864 218.058C344.502 217.916 343.96 217.705 343.253 217.433C341.839 216.888 339.769 216.102 337.173 215.143C331.978 213.224 324.697 210.624 316.371 207.906C299.536 202.41 279.104 196.656 263.035 194.813C237.396 191.872 199.364 189.767 170.567 194.115C155.89 196.332 145.36 199.992 139.736 204.61C137.157 206.727 135.969 208.749 135.512 210.704C135.043 212.71 135.082 215.779 136.986 220.405C137.185 220.888 137.847 222.102 141.3 223.287C144.88 224.515 150.206 225.234 157.465 225.302C171.974 225.438 190.926 223.015 212.131 220.342C232.952 217.718 255.637 214.903 276.395 214.665C296.872 214.43 317.217 216.638 332.475 225.396C367.387 245.433 377.387 276.814 381.883 309.96C384.95 332.57 379.93 354.832 371.79 373.342C363.69 391.766 352.113 407.35 340.979 416.52C329.565 425.92 313.492 431.958 297.322 436.016C280.928 440.131 263.321 442.475 247.977 443.862C231.731 445.331 206.704 443.379 184.357 440.52C162.149 437.679 140.679 433.695 131.718 430.508L131.717 430.508C115.969 424.909 102.706 420.285 90.3652 413.517C77.7549 406.601 66.343 397.604 53.4817 383.437C40.6175 369.267 34.1064 358.016 30.8557 349.792C29.2284 345.676 28.4247 342.334 28.0523 339.796C27.8665 338.53 27.7897 337.472 27.7692 336.629C27.759 336.208 27.7628 335.841 27.7741 335.53C27.7798 335.375 27.7875 335.233 27.796 335.105C27.8003 335.042 27.8053 334.982 27.8099 334.925C27.8122 334.897 27.8141 334.87 27.8165 334.843L27.8215 334.784C27.8224 334.775 27.824 334.766 37.7773 335.731L27.8241 334.766L29.075 321.858L41.2407 326.35C82.4535 341.568 119.217 343.178 166.133 336.43L168.993 336.019L171.598 337.181ZM781.276 386.671L810.589 380.78L822.377 378.412L823.147 429.477L860.741 426.13L857.512 390.664L856.338 377.773L869.108 379.892L897.753 384.645L825.753 189.566L781.276 386.671ZM1056.25 189.025C1050.29 188.199 1046.05 188.048 1043.15 188.181C1044.71 189.77 1046.94 191.713 1049.99 193.914C1055.94 198.201 1064.03 202.77 1073.74 206.939C1083.23 211.01 1092.22 213.222 1101.09 214.479C1100.93 214.122 1100.72 213.696 1100.46 213.213C1099.43 211.305 1097.59 208.496 1094.53 205.443C1088.52 199.454 1077.18 191.927 1056.25 189.025Z" fill="#CE1616" stroke="white" stroke-width="20"/>
</svg>
